<svg width="115" height="123" viewBox="0 0 115 123" fill="none" xmlns="http://www.w3.org/2000/svg">
<circle cx="58.5726" cy="66.3511" r="45.5" transform="rotate(-15 58.5726 66.3511)" fill="black"/>
<circle cx="58.5725" cy="66.351" r="35.5" transform="rotate(-15 58.5725 66.351)" stroke="white" stroke-width="4"/>
<circle cx="58.5726" cy="66.3511" r="9" transform="rotate(-15 58.5726 66.3511)" stroke="white"/>
<path d="M53.5261 47.5156L58.335 57.0974L54.1525 58.2181L53.5261 47.5156Z" fill="white"/>
<path d="M63.6199 85.1867L62.9936 74.4841L58.811 75.6048L63.6199 85.1867Z" fill="white"/>
<path d="M77.4088 61.304L67.8269 66.1129L66.7062 61.9303L77.4088 61.304Z" fill="white"/>
<path d="M39.7379 71.398L50.4404 70.7717L49.3197 66.5891L39.7379 71.398Z" fill="white"/>
<path d="M46.6583 59.4722L50.1562 62.5833L51.1015 60.9459L46.6583 59.4722Z" fill="white"/>
<path d="M70.3232 73.1354L66.8253 70.0243L65.8799 71.6618L70.3232 73.1354Z" fill="white"/>
<path d="M78.3642 40.5373L61.9869 69.2951L38.7838 92.164L54.8444 63.8192L78.3642 40.5373Z" fill="white" stroke="black"/>
<circle cx="58.5725" cy="66.3509" r="1.5" transform="rotate(-15 58.5725 66.3509)" fill="black"/>
<line x1="49.255" y1="31.5777" x2="50.8079" y2="37.3732" stroke="white" stroke-linecap="round"/>
<line x1="66.5958" y1="96.2947" x2="68.1487" y2="102.09" stroke="white" stroke-linecap="round"/>
<line x1="93.6054" y1="57.9996" x2="87.8099" y2="59.5525" stroke="white" stroke-linecap="round"/>
<line x1="28.8886" y1="75.3404" x2="23.0931" y2="76.8933" stroke="white" stroke-linecap="round"/>
<line x1="76.9027" y1="35.6034" x2="73.9027" y2="40.7996" stroke="white" stroke-linecap="round"/>
<line x1="43.4027" y1="93.6271" x2="40.4027" y2="98.8233" stroke="white" stroke-linecap="round"/>
<line x1="26.8588" y1="48.2804" x2="32.0549" y2="51.2804" stroke="white" stroke-linecap="round"/>
<line x1="84.8822" y1="81.7804" x2="90.0784" y2="84.7804" stroke="white" stroke-linecap="round"/>
<circle cx="47.2797" cy="22.272" r="3" transform="rotate(-15 47.2797 22.272)" fill="black"/>
<circle cx="45.7263" cy="16.4765" r="4.5" transform="rotate(-15 45.7263 16.4765)" stroke="black"/>
</svg>
