<svg width="212" height="185" viewBox="0 0 212 185" fill="none" xmlns="http://www.w3.org/2000/svg">
<mask id="mask0" mask-type="alpha" maskUnits="userSpaceOnUse" x="0" y="126" width="213" height="59">
<path d="M106.36 184.676L212.001 126.677H0.719727L106.36 184.676Z" fill="#FFD767"/>
</mask>
<g mask="url(#mask0)">
<path d="M102.029 182.298C104.726 183.779 107.994 183.779 110.692 182.298L201.746 132.307C204.467 130.813 203.406 126.677 200.303 126.677H12.4177C9.31405 126.677 8.25332 130.813 10.9739 132.307L102.029 182.298Z" fill="#FFD767"/>
<g style="mix-blend-mode:darken" opacity="0.155994">
<path d="M105.808 147.462L22.9531 193.033" stroke="black" stroke-width="4" stroke-linecap="round"/>
</g>
</g>
<path d="M134.397 45.3525C132.681 45.3525 130.998 45.4952 129.358 45.7658C134.042 40.2899 136.878 33.1697 136.878 25.3944C136.878 24.0154 135.767 22.8974 134.396 22.8974C127.581 22.8974 121.273 25.1182 116.145 28.8767C116.486 27.0107 116.662 25.1002 116.662 23.1622C116.662 14.811 113.43 6.95994 107.562 1.05466C106.593 0.0794346 105.022 0.0794346 104.053 1.05466C98.1842 6.95964 94.9525 14.811 94.9525 23.1622C94.9525 25.1002 95.1288 27.0107 95.4692 28.8767C90.3415 25.1185 84.0333 22.8974 77.2183 22.8974C75.8479 22.8974 74.7363 24.0154 74.7363 25.3944C74.7363 33.1671 77.5708 40.2853 82.2531 45.7606C80.6039 45.492 78.9218 45.3525 77.2183 45.3525C75.8479 45.3525 74.7363 46.4705 74.7363 47.8494C74.7363 55.6245 77.5729 62.745 82.2571 68.2209C80.6164 67.9503 78.9337 67.8076 77.218 67.8076C75.8476 67.8076 74.7363 68.9255 74.7363 70.3045C74.7363 78.0795 77.5726 85.2 82.2568 90.676C80.6161 90.4053 78.9331 90.2626 77.2177 90.2626C75.8473 90.2626 74.7363 91.3806 74.7363 92.7595C74.7363 109.159 87.3487 122.648 103.325 123.924V146.966C103.325 148.345 104.436 149.463 105.807 149.463C107.177 149.463 108.288 148.345 108.288 146.966V123.924C124.264 122.648 136.877 109.158 136.877 92.7595C136.877 91.3806 135.766 90.2626 134.395 90.2626C132.68 90.2626 130.997 90.4053 129.356 90.676C134.041 85.2 136.876 78.0795 136.876 70.3045C136.876 68.9255 135.765 67.8076 134.395 67.8076C132.68 67.8076 130.997 67.9503 129.356 68.2209C134.04 62.745 136.876 55.6245 136.876 47.8494C136.878 46.4705 135.767 45.3525 134.397 45.3525ZM130.664 29.3226C129.465 41.3312 119.887 50.9099 107.878 52.1078C109.077 40.0994 118.656 30.5205 130.664 29.3226ZM101.664 56.2547C103.346 56.5281 105.071 56.6727 106.83 56.6727C108.597 56.6727 110.331 56.5269 112.021 56.2505C109.895 58.7153 108.138 61.5058 106.839 64.5361C105.564 61.5519 103.828 58.7614 101.664 56.2547ZM112.021 79.0357C109.895 81.4995 108.14 84.2903 106.843 87.3213C105.545 84.2903 103.79 81.5001 101.664 79.0357C103.35 79.3115 105.08 79.4569 106.843 79.4569C108.606 79.4569 110.335 79.3115 112.021 79.0357ZM105.807 6.53739C109.832 11.2015 112.021 16.9951 112.021 23.1083C112.021 29.2215 109.832 35.0151 105.807 39.6795C101.782 35.0151 99.5929 29.2215 99.5929 23.1083C99.5929 16.9948 101.782 11.2015 105.807 6.53739ZM80.9505 29.3226C92.9588 30.5208 102.537 40.0994 103.736 52.1078C91.7273 50.9096 82.1487 41.3307 80.9505 29.3226ZM80.9505 50.0364C92.9588 51.2346 102.537 60.813 103.736 72.8216C91.7273 71.6234 82.1487 62.0448 80.9505 50.0364ZM80.9505 72.8216C92.9588 74.0198 102.537 83.5984 103.736 95.6068C91.7273 94.4086 82.1487 84.83 80.9505 72.8216ZM80.9505 95.6068C92.9588 96.805 102.537 106.384 103.736 118.392C91.727 117.193 82.1484 107.615 80.9505 95.6068ZM106.843 110.106C105.546 107.076 103.79 104.285 101.664 101.821C103.351 102.097 105.08 102.242 106.843 102.242C108.606 102.242 110.335 102.097 112.021 101.821C109.895 104.285 108.14 107.076 106.843 110.106ZM130.664 95.6068C129.465 107.615 119.887 117.194 107.878 118.392C109.077 106.384 118.656 96.8047 130.664 95.6068ZM130.664 72.8216C129.465 84.8302 119.887 94.4086 107.878 95.6068C109.077 83.5984 118.656 74.0198 130.664 72.8216ZM107.878 72.8216C108.454 66.984 111.007 61.5701 115.209 57.3673C119.412 53.1647 124.826 50.6127 130.664 50.0364C129.466 62.046 119.888 71.6246 107.878 72.8216Z" fill="#FF0000"/>
</svg>
