<svg width="300" height="300" viewBox="0 0 300 300" fill="none" xmlns="http://www.w3.org/2000/svg">
<rect width="300" height="300" fill="white"/>
<mask id="mask0" mask-type="alpha" maskUnits="userSpaceOnUse" x="17" y="192" width="265" height="74">
<path d="M149.641 265.354L281.641 192.883H17.6406L149.641 265.354Z" fill="#FFD767"/>
</mask>
<g mask="url(#mask0)">
<path d="M145.31 262.976C148.007 264.457 151.275 264.457 153.972 262.976L271.387 198.512C274.108 197.019 273.047 192.883 269.943 192.883H29.3386C26.2349 192.883 25.1742 197.019 27.8948 198.512L145.31 262.976Z" fill="#FFD767"/>
<g style="mix-blend-mode:darken" opacity="0.155994">
<path d="M148.952 218.854L45.4219 275.796" stroke="black" stroke-width="5" stroke-linecap="round"/>
</g>
</g>
<path d="M184.673 91.2651C182.53 91.2651 180.427 91.4435 178.377 91.7816C184.23 84.9393 187.773 76.0424 187.773 66.327C187.773 64.6039 186.385 63.207 184.673 63.207C176.157 63.207 168.275 65.9819 161.868 70.6782C162.293 68.3466 162.513 65.9594 162.513 63.5379C162.513 53.1028 158.475 43.2927 151.142 35.9139C149.931 34.6954 147.968 34.6954 146.757 35.9139C139.425 43.2923 135.387 53.1028 135.387 63.5379C135.387 65.9594 135.607 68.3466 136.032 70.6782C129.625 65.9823 121.743 63.207 113.227 63.207C111.515 63.207 110.126 64.6039 110.126 66.327C110.126 76.0392 113.668 84.9335 119.518 91.7751C117.458 91.4395 115.356 91.2651 113.227 91.2651C111.515 91.2651 110.126 92.6621 110.126 94.3851C110.126 104.1 113.67 112.997 119.523 119.84C117.473 119.502 115.371 119.323 113.227 119.323C111.515 119.323 110.126 120.72 110.126 122.443C110.126 132.158 113.67 141.056 119.523 147.898C117.473 147.56 115.37 147.381 113.226 147.381C111.514 147.381 110.126 148.778 110.126 150.501C110.126 170.993 125.885 187.848 145.849 189.443V218.233C145.849 219.956 147.237 221.353 148.949 221.353C150.661 221.353 152.05 219.956 152.05 218.233V189.443C172.012 187.848 187.772 170.992 187.772 150.501C187.772 148.778 186.384 147.381 184.671 147.381C182.527 147.381 180.425 147.56 178.375 147.898C184.229 141.056 187.771 132.158 187.771 122.443C187.771 120.72 186.383 119.323 184.671 119.323C182.527 119.323 180.424 119.502 178.374 119.84C184.227 112.997 187.771 104.1 187.771 94.3851C187.773 92.6621 186.385 91.2651 184.673 91.2651ZM180.008 71.2354C178.511 86.2405 166.543 98.2092 151.538 99.706C153.035 84.7013 165.004 72.7322 180.008 71.2354ZM143.773 104.888C145.875 105.229 148.03 105.41 150.228 105.41C152.436 105.41 154.602 105.228 156.714 104.883C154.057 107.962 151.863 111.449 150.239 115.235C148.646 111.507 146.476 108.02 143.773 104.888ZM156.714 133.353C154.058 136.432 151.865 139.919 150.244 143.706C148.623 139.919 146.43 136.432 143.773 133.353C145.88 133.698 148.041 133.879 150.244 133.879C152.447 133.879 154.608 133.698 156.714 133.353ZM148.95 42.7647C153.979 48.5927 156.714 55.8319 156.714 63.4705C156.714 71.109 153.979 78.3483 148.95 84.1766C143.92 78.3483 141.185 71.109 141.185 63.4705C141.185 55.8315 143.92 48.5927 148.95 42.7647ZM117.891 71.2354C132.895 72.7326 144.864 84.7013 146.361 99.706C131.357 98.2088 119.388 86.2398 117.891 71.2354ZM117.891 97.1178C132.895 98.615 144.864 110.583 146.361 125.588C131.357 124.091 119.388 112.123 117.891 97.1178ZM117.891 125.588C132.895 127.086 144.864 139.054 146.361 154.059C131.357 152.562 119.388 140.593 117.891 125.588ZM117.891 154.059C132.895 155.556 144.864 167.525 146.361 182.53C131.356 181.032 119.388 169.063 117.891 154.059ZM150.244 172.177C148.623 168.39 146.43 164.903 143.773 161.824C145.88 162.168 148.041 162.35 150.244 162.35C152.447 162.35 154.607 162.168 156.714 161.824C154.058 164.903 151.865 168.39 150.244 172.177ZM180.008 154.059C178.511 169.064 166.543 181.033 151.538 182.53C153.035 167.525 165.004 155.556 180.008 154.059ZM180.008 125.588C178.511 140.594 166.543 152.562 151.538 154.059C153.035 139.054 165.004 127.086 180.008 125.588ZM151.538 125.588C152.257 118.294 155.446 111.529 160.698 106.278C165.95 101.027 172.714 97.8379 180.008 97.1178C178.512 112.124 166.544 124.093 151.538 125.588Z" fill="#FF0000"/>
</svg>
