<svg width="100" height="100" viewBox="0 0 100 100" fill="none" xmlns="http://www.w3.org/2000/svg">
<rect width="100" height="100" fill="white"/>
<rect x="7.5" y="43.2144" width="81" height="39" rx="8.5" stroke="black" stroke-width="3" stroke-dasharray="4 4"/>
<rect x="24" y="78" width="43" height="8" fill="white"/>
<path d="M81.4305 14.8566C84.1127 12.1744 88.4615 12.1744 91.1437 14.8566V14.8566C93.826 17.5389 93.826 21.8876 91.1437 24.5699L38.6891 77.0245L23.3126 83.599L28.9758 67.3113L81.4305 14.8566Z" fill="#BF48BB"/>
<path d="M81.4305 14.8566C84.1127 12.1744 88.4615 12.1744 91.1437 14.8566V14.8566C93.826 17.5389 93.826 21.8876 91.1437 24.5699L38.6891 77.0245L23.3126 83.599L28.9758 67.3113L81.4305 14.8566Z" fill="black"/>
<path d="M33.8789 64.843L81.6928 17.0291L83.0264 18.3627C83.8075 19.1437 83.8075 20.4101 83.0264 21.1911L36.6267 67.5908L33.8789 64.843Z" fill="white"/>
</svg>
