<svg width="191" height="140" viewBox="0 0 191 140" fill="none" xmlns="http://www.w3.org/2000/svg">
<path fill-rule="evenodd" clip-rule="evenodd" d="M100.175 2.34566L190.38 133.553C191.483 135.157 191.076 137.351 189.473 138.453C188.885 138.857 188.189 139.073 187.476 139.073H7.06578C5.11964 139.073 3.54199 137.496 3.54199 135.55C3.54199 134.837 3.75819 134.141 4.16203 133.553L94.3673 2.34566C95.4699 0.741964 97.6637 0.335698 99.2674 1.43824C99.6228 1.68262 99.9304 1.99019 100.175 2.34566Z" fill="#8BDEFF"/>
<path fill-rule="evenodd" clip-rule="evenodd" d="M46.1604 41.7538L189.224 132.575C190.867 133.618 191.354 135.796 190.311 137.439C189.664 138.457 188.542 139.074 187.336 139.074H5.69273C3.7466 139.074 2.16895 137.496 2.16895 135.55C2.16895 135.077 2.26434 134.608 2.44942 134.173L41.0285 43.3511C41.7893 41.5599 43.8582 40.7246 45.6495 41.4855C45.8268 41.5608 45.9977 41.6506 46.1604 41.7538Z" fill="#68D3FD"/>
<path fill-rule="evenodd" clip-rule="evenodd" d="M12.1605 83.7547L188.357 132.152C190.234 132.667 191.337 134.607 190.822 136.483C190.401 138.013 189.01 139.074 187.424 139.074H4.42125C2.47511 139.074 0.897461 137.496 0.897461 135.55C0.897461 135.386 0.908933 135.222 0.931795 135.059L7.73767 86.6619C8.00867 84.7348 9.79065 83.3922 11.7178 83.6632C11.8672 83.6842 12.015 83.7148 12.1605 83.7547Z" fill="#45C5F8"/>
</svg>
