<svg width="300" height="300" viewBox="0 0 300 300" fill="none" xmlns="http://www.w3.org/2000/svg">
<rect width="300" height="300" fill="white"/>
<path fill-rule="evenodd" clip-rule="evenodd" d="M156.251 61.9549L267.237 223.389C268.593 225.362 268.093 228.062 266.12 229.418C265.398 229.915 264.541 230.181 263.664 230.181H41.692C39.2975 230.181 37.3564 228.24 37.3564 225.845C37.3564 224.968 37.6224 224.112 38.1193 223.389L149.105 61.9549C150.462 59.9818 153.161 59.4819 155.134 60.8385C155.572 61.1392 155.95 61.5176 156.251 61.9549Z" fill="#8BDEFF"/>
<path fill-rule="evenodd" clip-rule="evenodd" d="M89.7928 110.441L265.815 222.185C267.836 223.469 268.435 226.148 267.151 228.169C266.356 229.422 264.975 230.181 263.491 230.181H40.0026C37.6081 230.181 35.667 228.24 35.667 225.846C35.667 225.263 35.7844 224.687 36.0121 224.15L83.4787 112.406C84.4148 110.202 86.9603 109.175 89.1642 110.111C89.3824 110.204 89.5926 110.314 89.7928 110.441Z" fill="#68D3FD"/>
<path fill-rule="evenodd" clip-rule="evenodd" d="M47.9602 162.118L264.747 221.665C267.056 222.299 268.414 224.685 267.78 226.994C267.263 228.877 265.551 230.181 263.599 230.181H38.4381C36.0436 230.181 34.1025 228.24 34.1025 225.846C34.1025 225.644 34.1167 225.442 34.1448 225.242L42.5185 165.695C42.852 163.324 45.0445 161.672 47.4156 162.006C47.5994 162.032 47.7813 162.069 47.9602 162.118Z" fill="#45C5F8"/>
</svg>
