<svg width="185" height="162" viewBox="0 0 185 162" fill="none" xmlns="http://www.w3.org/2000/svg">
<g clip-path="url(#clip0)">
<path d="M45.2149 76.2345C65.5652 72.5982 79.1753 53.0581 75.614 32.5903C72.0526 12.1226 52.6684 -1.52204 32.3181 2.11421C11.9679 5.75047 -1.64225 25.2906 1.9191 45.7584C5.48044 66.2261 24.8646 79.8707 45.2149 76.2345Z" fill="#E4F2F8"/>
<path d="M106.068 76.9143C118.278 74.7326 126.444 63.0085 124.308 50.7278C122.171 38.4472 110.54 30.2604 98.3301 32.4422C86.12 34.6239 77.9539 46.348 80.0907 58.6287C82.2275 70.9093 93.858 79.0961 106.068 76.9143Z" fill="#B9D7E3"/>
<path d="M70.4965 148.219C72.25 150.155 71.1793 153.278 68.6039 153.738L61.2004 155.061C60.0693 155.263 58.9166 154.866 58.1523 154.01L40.6489 134.412C39.3695 132.979 37.1434 132.936 35.7987 134.318L34.5436 135.607C33.7957 136.376 33.4611 137.457 33.6446 138.511L36.6981 156.06C37.013 157.87 35.8037 159.599 33.997 159.922L27.2367 161.13C25.43 161.453 23.71 160.247 23.3951 158.437L13.5703 101.975C13.2554 100.165 14.4646 98.4356 16.2714 98.1128L23.0317 96.9049C24.8384 96.582 26.5584 97.7879 26.8733 99.5976L30.5324 120.626C30.7794 122.046 32.7001 122.305 33.323 121.002C33.989 119.609 34.655 118.216 35.321 116.823L47.8257 93.7528C48.31 92.8586 49.1738 92.2339 50.1717 92.0556L56.6503 90.898C59.3822 90.4099 61.4598 93.2929 60.1431 95.7449L47.423 119.429C46.7554 120.672 46.9395 122.199 47.8827 123.241L70.4965 148.219Z" fill="#525252"/>
<path d="M69.312 83.4911C71.3182 83.1332 73.1344 83.3055 74.7617 84.0086C76.3777 84.6509 77.406 86.2367 77.8465 88.7646C78.2764 91.2321 77.8461 93.0782 76.5551 94.3013C75.2635 95.5246 73.6151 96.3152 71.6088 96.6732C69.5419 97.042 67.6951 96.8751 66.0683 96.1726C64.5023 95.4592 63.5042 93.868 63.0743 91.4004C62.6338 88.8725 63.0339 87.0319 64.2749 85.8798C65.566 84.656 67.2451 83.8599 69.312 83.4911ZM76.0407 102.213C77.9105 101.88 79.6883 103.11 80.011 104.962L87.4323 147.554C87.7549 149.405 86.5002 151.177 84.6304 151.511L77.8154 152.727C75.9454 153.061 74.1678 151.83 73.8452 149.979L66.4238 107.386C66.1011 105.534 67.3556 103.763 69.2257 103.429L76.0407 102.213Z" fill="white"/>
<path d="M118.663 142.961C117.121 143.237 115.6 142.406 115.007 140.963L109.375 127.251C108.965 126.293 108.355 124.887 107.545 123.031C106.785 121.105 105.945 119.073 105.025 116.933C104.095 114.735 103.23 112.737 102.431 110.939C101.673 109.201 101.124 107.903 100.786 107.047C100.748 106.95 100.647 106.893 100.544 106.912C100.441 106.93 100.365 107.018 100.362 107.122C100.333 108.044 100.257 109.454 100.131 111.35C100.045 113.306 99.9365 115.478 99.8047 117.866C99.6626 120.195 99.5296 122.402 99.4057 124.485C99.2818 126.568 99.1937 128.161 99.142 129.261L98.3011 143.988C98.2129 145.533 97.0695 146.819 95.5419 147.092L86.4764 148.712C85.0079 148.974 83.5482 148.233 82.9016 146.895L63.8132 107.406C62.8541 105.421 64.0681 103.061 66.2482 102.672L72.4554 101.563C73.9509 101.296 75.433 102.069 76.0606 103.445L84.2831 121.458C84.9515 122.854 85.6126 124.554 86.2658 126.56C86.9774 128.555 87.6499 130.496 88.2825 132.383C88.8734 134.12 89.3247 135.526 89.6359 136.602C89.6634 136.698 89.7598 136.757 89.8583 136.74C89.9595 136.721 90.03 136.629 90.0205 136.527C89.9444 135.716 89.8785 134.667 89.824 133.381C89.7559 131.938 89.7115 130.461 89.6915 128.948C89.7308 127.426 89.7364 126.061 89.7086 124.853C89.7296 123.576 89.7637 122.721 89.8097 122.289L91.5131 100.698C91.6328 99.1821 92.7665 97.9341 94.2672 97.666L103.647 95.9902C105.161 95.7196 106.659 96.5158 107.273 97.9176L115.91 117.626C116.289 118.406 116.785 119.682 117.396 121.452C118.068 123.212 118.685 125.012 119.248 126.851C119.837 128.58 120.234 129.991 120.44 131.084C120.459 131.187 120.557 131.255 120.661 131.236C120.756 131.219 120.823 131.135 120.819 131.039C120.767 130.027 120.726 128.605 120.694 126.774C120.652 124.781 120.623 122.695 120.609 120.514C120.654 118.324 120.754 116.457 120.912 114.914L122.717 95.084C122.853 93.584 123.981 92.3572 125.467 92.0917L131.502 91.0135C133.687 90.6231 135.626 92.4284 135.387 94.6297L130.626 138.38C130.465 139.856 129.346 141.053 127.881 141.314L118.663 142.961Z" fill="#525252"/>
<path d="M157.246 83.2407C163.627 82.1005 168.747 82.6414 172.603 84.8644C176.507 87.0178 178.961 90.9774 179.964 96.7437L184.984 125.59C185.298 127.4 184.107 129.126 182.322 129.445L178.708 130.091C177.378 130.328 176.04 129.716 175.337 128.547L172.951 124.584C172.886 124.476 172.762 124.419 172.639 124.441C172.548 124.458 172.469 124.515 172.425 124.597C170.861 127.485 169.065 129.708 167.038 131.265C164.98 132.847 161.979 133.989 158.033 134.694C153.798 135.451 150.073 134.843 146.859 132.869C143.634 130.837 141.57 127.232 140.669 122.055C139.779 116.936 140.893 112.855 144.012 109.81C147.122 106.707 152.195 104.405 159.231 102.905L165.377 101.603C166.534 101.357 167.29 100.226 167.084 99.0451C166.644 96.5146 165.655 94.7809 164.115 93.8423C162.634 92.8939 160.734 92.6266 158.413 93.0413C156.092 93.456 153.891 94.2135 151.809 95.3133C150.633 95.8986 149.466 96.5402 148.309 97.2368C146.786 98.1551 144.8 97.8092 143.761 96.352L141.677 93.4312C140.637 91.9735 140.921 89.9286 142.419 88.9661C144.05 87.9185 145.81 86.9728 147.699 86.1292C150.698 84.8047 153.881 83.842 157.246 83.2407ZM169.379 112.233C169.056 110.378 167.282 109.165 165.466 109.555L163.772 109.919C159.615 110.783 156.848 112.067 155.469 113.769C154.09 115.471 153.6 117.469 154 119.764C154.348 121.764 155.179 123.102 156.493 123.777C157.796 124.394 159.376 124.536 161.233 124.204C164.018 123.706 166.224 122.463 167.852 120.474C169.47 118.426 170.012 115.871 169.48 112.812L169.379 112.233Z" fill="#525252"/>
<path d="M74.6298 97.8184C81.2436 96.6366 85.6669 90.2861 84.5094 83.6341C83.352 76.982 77.0521 72.5475 70.4383 73.7293C63.8245 74.9111 59.4012 81.2617 60.5586 87.9137C61.7161 94.5657 68.0159 99.0002 74.6298 97.8184Z" fill="#94AFBB"/>
</g>
<defs>
<clipPath id="clip0">
<rect width="185" height="162" fill="white"/>
</clipPath>
</defs>
</svg>
