<svg width="300" height="300" viewBox="0 0 300 300" fill="none" xmlns="http://www.w3.org/2000/svg">
<rect width="300" height="300" fill="white"/>
<path fill-rule="evenodd" clip-rule="evenodd" d="M113.342 97.3606C117.336 120.314 102.073 142.227 79.2514 146.305C56.4297 150.383 34.6913 135.081 30.6974 112.128C26.7036 89.1744 41.9666 67.2612 64.7884 63.1833C87.6101 59.1054 109.348 74.4071 113.342 97.3606ZM253.425 198.324C253.842 198.923 254.437 198.975 255.152 198.828L265.952 196.604C266.148 196.564 266.34 196.507 266.526 196.434C268.791 195.547 269.568 192.604 268.579 190.382C267.71 188.429 266.976 186.09 266.377 183.367L261.298 158.705C259.951 152.685 256.861 148.365 252.028 145.747C247.195 143.128 241.226 142.551 234.12 144.014C227.015 145.477 221.509 148.364 217.602 152.676C215.948 154.515 214.748 156.453 214.003 158.49C212.323 163.085 217.343 166.415 222.134 165.428C224.656 164.909 226.658 162.928 228.666 160.941C230.474 159.153 232.286 157.36 234.484 156.626C234.873 156.497 235.29 156.386 235.737 156.294C240.165 155.382 242.906 157.483 243.959 162.597C244.293 164.218 243.249 165.803 241.628 166.137L239.209 166.635C230.696 168.388 224.527 171.269 220.701 175.277C216.875 179.285 215.584 184.31 216.828 190.351C217.818 195.157 220.477 198.777 224.808 201.213C229.131 203.615 233.918 204.275 239.17 203.193C243.319 202.338 246.586 200.569 248.971 197.884C250.088 196.627 252.462 196.945 253.425 198.324ZM245.864 187.484C244.647 188.701 242.958 189.532 240.795 189.977C239.148 190.316 237.693 190.115 236.431 189.373C235.162 188.597 234.365 187.419 234.04 185.84C232.923 180.417 235.385 177.083 241.426 175.839C244.213 175.265 246.937 177.059 247.511 179.846L247.941 181.935C248.181 183.099 248.185 184.337 247.577 185.358C247.148 186.078 246.577 186.787 245.864 187.484ZM126.561 225.311C131.367 224.321 134.46 219.623 133.47 214.818L125.581 176.511C124.592 171.705 119.894 168.612 115.088 169.602C110.282 170.591 107.189 175.289 108.179 180.095L116.068 218.402C117.057 223.207 121.755 226.301 126.561 225.311ZM74.4482 218.277C75.9366 216.016 79.16 215.773 80.9706 217.785L90.5613 228.44C92.5767 230.679 95.6282 231.681 98.5787 231.074C105.13 229.724 107.617 221.678 102.968 216.868L91.558 205.061C88.3329 201.724 87.6575 196.675 89.8922 192.607L92.5562 187.758C95.8542 181.755 90.6061 174.644 83.8974 176.025C81.5143 176.516 79.4821 178.061 78.3716 180.226L70.401 195.765C69.9915 196.626 68.7219 196.472 68.5296 195.538L62.2618 165.104C61.275 160.313 56.5909 157.228 51.7995 158.215C47.0081 159.202 43.9238 163.886 44.9106 168.678L57.6349 230.462C58.6216 235.254 63.3058 238.338 68.0972 237.351C72.8886 236.364 75.9729 231.68 74.9861 226.889L73.8521 221.383C73.6311 220.309 73.8455 219.192 74.4482 218.277ZM183.014 175.754C184.511 178.749 189.033 177.6 188.92 174.254L188.482 161.329C188.349 157.404 191.064 153.955 194.911 153.162C200.003 152.114 204.741 156.088 204.593 161.285L203.442 201.878C203.315 206.357 200.124 210.161 195.735 211.065L194.561 211.307C191.009 212.038 187.404 210.313 185.746 207.088C182.007 199.818 171.072 202.078 170.498 210.232C170.244 213.848 167.614 216.856 164.063 217.587L162.89 217.829C158.497 218.734 154.06 216.499 152.172 212.431L135.066 175.576C132.883 170.873 135.657 165.365 140.735 164.32C144.591 163.526 148.455 165.642 149.862 169.319L154.582 181.651C155.795 184.82 160.473 184.086 160.658 180.698L161.45 166.161C161.649 162.521 164.275 159.472 167.846 158.736C171.408 158.003 175.018 159.756 176.644 163.009L183.014 175.754ZM147.495 148.188C161.188 145.741 170.346 132.593 167.949 118.821C165.553 105.049 152.51 95.8682 138.817 98.315C125.124 100.762 115.966 113.91 118.362 127.682C120.759 141.454 133.802 150.635 147.495 148.188ZM124.44 150.117C125.738 157.577 120.778 164.698 113.361 166.024C105.944 167.349 98.8787 162.376 97.5807 154.916C96.2826 147.456 101.243 140.334 108.66 139.009C116.077 137.684 123.142 142.657 124.44 150.117Z" fill="#1FDAB8"/>
<path fill-rule="evenodd" clip-rule="evenodd" d="M113.342 97.3606C117.336 120.314 102.073 142.227 79.2514 146.305C56.4297 150.383 34.6913 135.081 30.6974 112.128C26.7036 89.1744 41.9666 67.2612 64.7884 63.1833C87.6101 59.1054 109.348 74.4071 113.342 97.3606ZM253.425 198.324C253.842 198.923 254.437 198.975 255.152 198.828L265.952 196.604C266.148 196.564 266.34 196.507 266.526 196.434C268.791 195.547 269.568 192.604 268.579 190.382C267.71 188.429 266.976 186.09 266.377 183.367L261.298 158.705C259.951 152.685 256.861 148.365 252.028 145.747C247.195 143.128 241.226 142.551 234.12 144.014C227.015 145.477 221.509 148.364 217.602 152.676C215.948 154.515 214.748 156.453 214.003 158.49C212.323 163.085 217.343 166.415 222.134 165.428C224.656 164.909 226.658 162.928 228.666 160.941C230.474 159.153 232.286 157.36 234.484 156.626C234.873 156.497 235.29 156.386 235.737 156.294C240.165 155.382 242.906 157.483 243.959 162.597C244.293 164.218 243.249 165.803 241.628 166.137L239.209 166.635C230.696 168.388 224.527 171.269 220.701 175.277C216.875 179.285 215.584 184.31 216.828 190.351C217.818 195.157 220.477 198.777 224.808 201.213C229.131 203.615 233.918 204.275 239.17 203.193C243.319 202.338 246.586 200.569 248.971 197.884C250.088 196.627 252.462 196.945 253.425 198.324ZM245.864 187.484C244.647 188.701 242.958 189.532 240.795 189.977C239.148 190.316 237.693 190.115 236.431 189.373C235.162 188.597 234.365 187.419 234.04 185.84C232.923 180.417 235.385 177.083 241.426 175.839C244.213 175.265 246.937 177.059 247.511 179.846L247.941 181.935C248.181 183.099 248.185 184.337 247.577 185.358C247.148 186.078 246.577 186.787 245.864 187.484ZM126.561 225.311C131.367 224.321 134.46 219.623 133.47 214.818L125.581 176.511C124.592 171.705 119.894 168.612 115.088 169.602C110.282 170.591 107.189 175.289 108.179 180.095L116.068 218.402C117.057 223.207 121.755 226.301 126.561 225.311ZM74.4482 218.277C75.9366 216.016 79.16 215.773 80.9706 217.785L90.5613 228.44C92.5767 230.679 95.6282 231.681 98.5787 231.074C105.13 229.724 107.617 221.678 102.968 216.868L91.558 205.061C88.3329 201.724 87.6575 196.675 89.8922 192.607L92.5562 187.758C95.8542 181.755 90.6061 174.644 83.8974 176.025C81.5143 176.516 79.4821 178.061 78.3716 180.226L70.401 195.765C69.9915 196.626 68.7219 196.472 68.5296 195.538L62.2618 165.104C61.275 160.313 56.5909 157.228 51.7995 158.215C47.0081 159.202 43.9238 163.886 44.9106 168.678L57.6349 230.462C58.6216 235.254 63.3058 238.338 68.0972 237.351C72.8886 236.364 75.9729 231.68 74.9861 226.889L73.8521 221.383C73.6311 220.309 73.8455 219.192 74.4482 218.277ZM183.014 175.754C184.511 178.749 189.033 177.6 188.92 174.254L188.482 161.329C188.349 157.404 191.064 153.955 194.911 153.162C200.003 152.114 204.741 156.088 204.593 161.285L203.442 201.878C203.315 206.357 200.124 210.161 195.735 211.065L194.561 211.307C191.009 212.038 187.404 210.313 185.746 207.088C182.007 199.818 171.072 202.078 170.498 210.232C170.244 213.848 167.614 216.856 164.063 217.587L162.89 217.829C158.497 218.734 154.06 216.499 152.172 212.431L135.066 175.576C132.883 170.873 135.657 165.365 140.735 164.32C144.591 163.526 148.455 165.642 149.862 169.319L154.582 181.651C155.795 184.82 160.473 184.086 160.658 180.698L161.45 166.161C161.649 162.521 164.275 159.472 167.846 158.736C171.408 158.003 175.018 159.756 176.644 163.009L183.014 175.754ZM147.495 148.188C161.188 145.741 170.346 132.593 167.949 118.821C165.553 105.049 152.51 95.8682 138.817 98.315C125.124 100.762 115.966 113.91 118.362 127.682C120.759 141.454 133.802 150.635 147.495 148.188ZM124.44 150.117C125.738 157.577 120.778 164.698 113.361 166.024C105.944 167.349 98.8787 162.376 97.5807 154.916C96.2826 147.456 101.243 140.334 108.66 139.009C116.077 137.684 123.142 142.657 124.44 150.117Z" fill="url(#paint0_linear)"/>
<defs>
<linearGradient id="paint0_linear" x1="116" y1="58" x2="114" y2="243" gradientUnits="userSpaceOnUse">
<stop stop-color="white" stop-opacity="0"/>
<stop offset="1" stop-color="#008AA9"/>
</linearGradient>
</defs>
</svg>
